<mxfile host="Electron" modified="2023-12-02T12:30:04.807Z" agent="Mozilla/5.0 (Windows NT 10.0; Win64; x64) AppleWebKit/537.36 (KHTML, like Gecko) draw.io/22.1.2 Chrome/114.0.5735.289 Electron/25.9.4 Safari/537.36" etag="Q6hkSXeZqJhEiVdcbelQ" version="22.1.2" type="device">
  <diagram name="Page-1" id="yy1P08NAhtCb_Y4HbhNz">
    <mxGraphModel dx="2058" dy="1228" grid="1" gridSize="10" guides="1" tooltips="1" connect="1" arrows="1" fold="1" page="1" pageScale="1" pageWidth="1600" pageHeight="900" math="0" shadow="0">
      <root>
        <mxCell id="0" />
        <mxCell id="1" parent="0" />
        <mxCell id="EtyyKzym98qTUBSc2fMs-2" value="" style="rounded=0;whiteSpace=wrap;html=1;" vertex="1" parent="1">
          <mxGeometry width="1600" height="900" as="geometry" />
        </mxCell>
        <mxCell id="eT0MvNRh3GvakTnMso6K-8" value="&lt;font style=&quot;font-size: 36px;&quot;&gt;CHEF - Cooking Helper for Everyone&#39;s Fridge&lt;/font&gt;" style="rounded=0;whiteSpace=wrap;html=1;" parent="1" vertex="1">
          <mxGeometry width="1600" height="80" as="geometry" />
        </mxCell>
        <mxCell id="eT0MvNRh3GvakTnMso6K-9" value="&lt;font style=&quot;font-size: 24px;&quot;&gt;My Ingredients&lt;/font&gt;" style="text;html=1;align=left;verticalAlign=middle;resizable=0;points=[];autosize=1;strokeColor=none;fillColor=none;" parent="1" vertex="1">
          <mxGeometry y="120" width="180" height="40" as="geometry" />
        </mxCell>
        <mxCell id="eT0MvNRh3GvakTnMso6K-10" value="" style="endArrow=none;html=1;rounded=0;" parent="1" edge="1">
          <mxGeometry width="50" height="50" relative="1" as="geometry">
            <mxPoint y="160" as="sourcePoint" />
            <mxPoint x="280" y="160" as="targetPoint" />
          </mxGeometry>
        </mxCell>
        <mxCell id="eT0MvNRh3GvakTnMso6K-11" value="" style="rounded=0;whiteSpace=wrap;html=1;" parent="1" vertex="1">
          <mxGeometry x="10" y="180" width="190" height="100" as="geometry" />
        </mxCell>
        <mxCell id="eT0MvNRh3GvakTnMso6K-13" value="&lt;font style=&quot;font-size: 16px;&quot;&gt;Cheese&lt;/font&gt;" style="text;html=1;strokeColor=none;fillColor=none;align=center;verticalAlign=middle;whiteSpace=wrap;rounded=0;" parent="1" vertex="1">
          <mxGeometry x="10" y="180" width="190" height="30" as="geometry" />
        </mxCell>
        <mxCell id="eT0MvNRh3GvakTnMso6K-14" value="500g" style="text;html=1;strokeColor=none;fillColor=none;align=center;verticalAlign=middle;whiteSpace=wrap;rounded=0;" parent="1" vertex="1">
          <mxGeometry x="10" y="210" width="190" height="30" as="geometry" />
        </mxCell>
        <mxCell id="eT0MvNRh3GvakTnMso6K-15" value="Add" style="rounded=0;whiteSpace=wrap;html=1;" parent="1" vertex="1">
          <mxGeometry x="10" y="245" width="90" height="35" as="geometry" />
        </mxCell>
        <mxCell id="eT0MvNRh3GvakTnMso6K-16" value="Remove" style="rounded=0;whiteSpace=wrap;html=1;" parent="1" vertex="1">
          <mxGeometry x="100" y="245" width="100" height="35" as="geometry" />
        </mxCell>
      </root>
    </mxGraphModel>
  </diagram>
</mxfile>
